<svg width="2000" height="742" viewBox="0 0 2000 742" fill="none" xmlns="http://www.w3.org/2000/svg">
<path d="M779.136 163.683H639.295C544.057 163.683 488.501 215.699 488.501 306.375V545.302C488.501 637.554 543.104 690.4 638.184 690.317H923.898V586.782H655.009C602.39 586.782 592.549 577.49 591.041 528.709L928.581 448.901V306.624C928.581 215.533 874.295 163.683 779.136 163.683ZM589.93 421.358V321.308C589.93 284.556 599.374 267.135 653.422 267.135H763.501C820.962 267.135 826.993 281.404 826.993 313.924V360.797L589.93 421.358Z" fill="white"/>
<path d="M1253.11 163.683H1113.27C1017.63 163.683 962.475 215.699 962.475 306.375V545.302C962.475 637.554 1017.08 690.4 1112.16 690.317H1397.87V586.782H1128.98C1076.36 586.782 1066.52 577.49 1065.01 528.709L1402.87 448.818V306.624C1402.79 215.533 1348.27 163.683 1253.11 163.683ZM1063.9 421.773V321.308C1063.9 284.556 1073.35 267.135 1127.4 267.135H1237.47C1294.94 267.135 1300.97 281.404 1300.97 313.924V360.797L1063.9 421.773Z" fill="white"/>
<path d="M305.159 283.311H163.81C113.73 283.311 104.207 264.81 104.207 230.796V160.612C104.207 126.017 113.73 107.268 163.81 107.268H450.953V0H149.762C53.1747 0 0 50.9378 0 143.439V246.642C0 338.894 54.6033 391.74 149.762 391.74H291.112C340.794 391.74 349.921 409.411 349.921 444.171V529.953C349.921 565.294 340.794 583.213 291.112 583.213H3.88889V690.481H305.477C400.715 690.481 455.239 638.299 455.239 547.042V428.326C454.921 336.157 400.318 283.311 305.159 283.311Z" fill="white"/>
<path d="M1879.52 610.258C1924.47 562.872 1951.03 499.765 1954.09 433.113C1957.14 366.461 1936.47 300.988 1896.07 249.327C1855.66 197.666 1798.39 163.478 1735.29 153.36C1672.19 143.241 1607.74 157.91 1554.38 194.535C1501.02 231.16 1462.53 287.146 1446.33 351.69C1430.13 416.234 1437.37 484.763 1466.66 544.053C1495.95 603.343 1545.21 649.193 1604.94 672.755C1664.66 696.318 1730.62 695.924 1790.08 671.649L1862.38 742H2000L1879.52 610.258ZM1695.79 594.413C1662.64 594.38 1630.24 584.07 1602.69 564.786C1575.14 545.502 1553.68 518.112 1541.02 486.078C1528.37 454.045 1525.09 418.808 1531.59 384.824C1538.09 350.84 1554.1 319.637 1577.57 295.159C1601.04 270.682 1630.93 254.03 1663.46 247.311C1695.98 240.592 1729.68 244.107 1760.3 257.412C1790.91 270.716 1817.07 293.213 1835.45 322.055C1853.83 350.898 1863.62 384.791 1863.57 419.449C1863.44 465.883 1845.72 510.372 1814.27 543.168C1782.82 575.963 1740.22 594.391 1695.79 594.413V594.413Z" fill="white"/>
<path d="M1682.55 270.535C1671.88 270.503 1661.23 271.7 1650.81 274.102C1725.25 285.385 1767.95 344.619 1767.87 425.505C1767.87 489.966 1745.65 552.933 1693.03 578.402C1731.07 575.48 1766.55 557.263 1792.02 527.576C1817.48 497.889 1830.95 459.043 1829.59 419.196C1828.24 379.349 1812.16 341.601 1784.74 313.881C1757.33 286.16 1720.7 270.624 1682.55 270.535V270.535Z" fill="white"/>
<path d="M1940.88 163.681C1934.81 163.74 1928.79 162.527 1923.18 160.114C1917.78 157.797 1912.87 154.386 1908.73 150.075C1904.54 145.624 1901.22 140.352 1898.97 134.562C1896.6 128.278 1895.41 121.573 1895.48 114.817C1895.42 108.008 1896.61 101.251 1898.97 94.9065C1901.2 89.0801 1904.52 83.7776 1908.73 79.3099C1912.86 74.9749 1917.77 71.5353 1923.18 69.1887C1934.52 64.4566 1947.16 64.4566 1958.5 69.1887C1963.91 71.5157 1968.82 74.9577 1972.94 79.3099C1977.15 83.7776 1980.47 89.0801 1982.7 94.9065C1985.07 101.251 1986.25 108.008 1986.19 114.817C1986.26 121.573 1985.08 128.278 1982.7 134.562C1980.45 140.352 1977.14 145.624 1972.94 150.075C1968.82 154.403 1963.91 157.817 1958.5 160.114C1952.91 162.527 1946.92 163.74 1940.88 163.681ZM1940.88 153.145C1945.54 153.195 1950.16 152.235 1954.45 150.324C1958.63 148.413 1962.36 145.584 1965.4 142.028C1968.56 138.582 1970.99 134.485 1972.54 129.999C1974.34 125.018 1975.23 119.727 1975.16 114.402C1975.23 109.024 1974.34 103.68 1972.54 98.6398C1970.97 94.0889 1968.54 89.9138 1965.4 86.3616C1962.36 82.8059 1958.63 79.9764 1954.45 78.0655C1945.67 74.3083 1935.84 74.3083 1927.07 78.0655C1922.97 80.0388 1919.3 82.8611 1916.27 86.3616C1913.13 89.9138 1910.7 94.0889 1909.13 98.6398C1907.34 103.68 1906.45 109.024 1906.51 114.402C1906.44 119.727 1907.33 125.018 1909.13 129.999C1910.67 134.415 1913.06 138.458 1916.14 141.881C1919.22 145.303 1922.94 148.035 1927.07 149.909C1931.43 151.844 1936.14 152.805 1940.88 152.73V153.145ZM1922.7 138.627V89.0163H1942.23C1946.91 88.8568 1951.55 90.125 1955.56 92.6666C1957.42 94.029 1958.91 95.8814 1959.87 98.0372C1960.84 100.193 1961.24 102.576 1961.04 104.945C1961.12 107.883 1960.35 110.779 1958.81 113.241C1957.26 115.748 1955.02 117.713 1952.38 118.882L1962.7 138.295H1950.24L1942.3 122.366H1934.37V138.295L1922.7 138.627ZM1934.53 113.739H1939.92C1942.2 113.856 1944.44 113.153 1946.27 111.748C1947.03 111.095 1947.63 110.269 1948.03 109.334C1948.43 108.398 1948.62 107.379 1948.57 106.355C1948.61 105.375 1948.45 104.398 1948.11 103.484C1947.77 102.571 1947.25 101.741 1946.59 101.046C1944.78 99.5238 1942.48 98.782 1940.16 98.9716H1934.53V113.739Z" fill="white"/>
</svg>
